<svg xmlns="http://www.w3.org/2000/svg" xmlns:xlink="http://www.w3.org/1999/xlink" width="1584" zoomAndPan="magnify" viewBox="0 0 1188 296.999993" height="396" preserveAspectRatio="xMidYMid meet" version="1.2"><defs/><g id="086161daec"><g style="fill:#ffffff;fill-opacity:1;"><g transform="translate(14.914313, 269.17463)"><path style="stroke:none" d="M 199.203125 -219.21875 L 141.96875 -1.5625 L 64.421875 2.8125 L -5.9375 -217.015625 L 68.171875 -223.90625 L 98.1875 -95.6875 L 127.28125 -223.90625 Z M 199.203125 -219.21875 "/></g></g><g style="fill:#ffffff;fill-opacity:1;"><g transform="translate(211.040305, 269.17463)"><path style="stroke:none" d="M 249.703125 -227.96875 L 235.3125 1.5625 L 164.015625 4.6875 L 164.640625 -116.328125 L 132.4375 -18.765625 L 104.921875 -18.765625 L 80.21875 -106.015625 L 79.890625 -4.6875 L 7.65625 -2.5 L 10.78125 -218.59375 L 91.15625 -221.71875 L 123.046875 -118.203125 L 165.578125 -227.96875 Z M 249.703125 -227.96875 "/></g></g><g style="fill:#ffffff;fill-opacity:1;"><g transform="translate(464.05062, 269.17463)"><path style="stroke:none" d="M 168.078125 -83.1875 C 168.078125 -68.90625 165.601562 -56.421875 160.65625 -45.734375 C 155.707031 -35.046875 148.929688 -26.15625 140.328125 -19.0625 C 131.734375 -11.976562 121.675781 -6.664062 110.15625 -3.125 C 98.632812 0.414062 86.253906 2.1875 73.015625 2.1875 C 67.910156 2.1875 62.304688 1.507812 56.203125 0.15625 C 50.109375 -1.195312 43.929688 -2.890625 37.671875 -4.921875 C 31.421875 -6.953125 25.398438 -9.140625 19.609375 -11.484375 C 13.828125 -13.835938 8.695312 -16.054688 4.21875 -18.140625 L 11.09375 -82.5625 C 19.957031 -77.238281 29.78125 -73.195312 40.5625 -70.4375 C 51.351562 -67.675781 61.960938 -66.296875 72.390625 -66.296875 C 74.367188 -66.296875 76.765625 -66.375 79.578125 -66.53125 C 82.398438 -66.6875 85.085938 -67.15625 87.640625 -67.9375 C 90.191406 -68.71875 92.351562 -69.890625 94.125 -71.453125 C 95.894531 -73.015625 96.78125 -75.253906 96.78125 -78.171875 C 96.78125 -80.160156 96.15625 -81.859375 94.90625 -83.265625 C 93.65625 -84.671875 92.039062 -85.816406 90.0625 -86.703125 C 88.082031 -87.585938 85.835938 -88.265625 83.328125 -88.734375 C 80.828125 -89.203125 78.378906 -89.539062 75.984375 -89.75 C 73.585938 -89.957031 71.347656 -90.0625 69.265625 -90.0625 C 67.179688 -90.0625 65.515625 -90.0625 64.265625 -90.0625 C 55.296875 -90.0625 47.132812 -91.625 39.78125 -94.75 C 32.4375 -97.875 26.132812 -102.222656 20.875 -107.796875 C 15.613281 -113.378906 11.519531 -120 8.59375 -127.65625 C 5.675781 -135.320312 4.21875 -143.640625 4.21875 -152.609375 C 4.21875 -164.898438 6.691406 -175.921875 11.640625 -185.671875 C 16.597656 -195.421875 23.21875 -203.707031 31.5 -210.53125 C 39.789062 -217.363281 49.300781 -222.601562 60.03125 -226.25 C 70.769531 -229.894531 81.875 -231.71875 93.34375 -231.71875 C 98.445312 -231.71875 103.707031 -231.535156 109.125 -231.171875 C 114.550781 -230.804688 119.945312 -230.15625 125.3125 -229.21875 C 130.6875 -228.28125 135.925781 -227.082031 141.03125 -225.625 C 146.144531 -224.164062 150.992188 -222.34375 155.578125 -220.15625 L 149.640625 -156.671875 C 142.546875 -159.066406 135.113281 -161.070312 127.34375 -162.6875 C 119.582031 -164.300781 112.003906 -165.109375 104.609375 -165.109375 C 103.242188 -165.109375 101.492188 -165.082031 99.359375 -165.03125 C 97.222656 -164.976562 94.984375 -164.820312 92.640625 -164.5625 C 90.296875 -164.300781 87.925781 -163.910156 85.53125 -163.390625 C 83.132812 -162.867188 80.992188 -162.164062 79.109375 -161.28125 C 77.234375 -160.394531 75.722656 -159.222656 74.578125 -157.765625 C 73.429688 -156.304688 72.910156 -154.585938 73.015625 -152.609375 C 73.117188 -150.316406 73.976562 -148.460938 75.59375 -147.046875 C 77.207031 -145.640625 79.289062 -144.546875 81.84375 -143.765625 C 84.40625 -142.984375 87.222656 -142.4375 90.296875 -142.125 C 93.367188 -141.8125 96.414062 -141.628906 99.4375 -141.578125 C 102.46875 -141.523438 105.285156 -141.523438 107.890625 -141.578125 C 110.492188 -141.628906 112.628906 -141.550781 114.296875 -141.34375 C 122.640625 -140.820312 130.144531 -139.050781 136.8125 -136.03125 C 143.476562 -133.007812 149.128906 -128.992188 153.765625 -123.984375 C 158.410156 -118.984375 161.957031 -113.015625 164.40625 -106.078125 C 166.851562 -99.148438 168.078125 -91.519531 168.078125 -83.1875 Z M 168.078125 -83.1875 "/></g></g><g style="fill:#ffffff;fill-opacity:1;"><g transform="translate(633.922308, 269.17463)"><path style="stroke:none" d="M 185.125 -124.140625 C 185.125 -109.546875 183.25 -96.382812 179.5 -84.65625 C 175.75 -72.9375 170.507812 -62.515625 163.78125 -53.390625 C 157.0625 -44.273438 149.0625 -36.429688 139.78125 -29.859375 C 130.507812 -23.296875 120.347656 -17.898438 109.296875 -13.671875 C 98.242188 -9.453125 86.488281 -6.328125 74.03125 -4.296875 C 61.570312 -2.265625 48.78125 -1.25 35.65625 -1.25 C 30.75 -1.25 25.953125 -1.378906 21.265625 -1.640625 C 16.578125 -1.898438 11.78125 -2.289062 6.875 -2.8125 L 11.25 -212.640625 C 22.71875 -216.296875 34.523438 -218.878906 46.671875 -220.390625 C 58.816406 -221.898438 70.882812 -222.65625 82.875 -222.65625 C 97.78125 -222.65625 111.484375 -220.410156 123.984375 -215.921875 C 136.492188 -211.441406 147.28125 -204.976562 156.34375 -196.53125 C 165.414062 -188.09375 172.476562 -177.773438 177.53125 -165.578125 C 182.59375 -153.378906 185.125 -139.566406 185.125 -124.140625 Z M 121.015625 -114.140625 C 121.117188 -119.765625 120.519531 -125.179688 119.21875 -130.390625 C 117.914062 -135.609375 115.78125 -140.222656 112.8125 -144.234375 C 109.84375 -148.253906 106.0625 -151.488281 101.46875 -153.9375 C 96.882812 -156.382812 91.414062 -157.710938 85.0625 -157.921875 L 78.796875 -60.984375 C 85.054688 -61.921875 90.738281 -63.976562 95.84375 -67.15625 C 100.957031 -70.332031 105.363281 -74.238281 109.0625 -78.875 C 112.757812 -83.519531 115.625 -88.679688 117.65625 -94.359375 C 119.6875 -100.035156 120.804688 -105.898438 121.015625 -111.953125 Z M 121.015625 -114.140625 "/></g></g><g style="fill:#ffffff;fill-opacity:1;"><g transform="translate(813.635769, 269.17463)"><path style="stroke:none" d="M 68.484375 -32.203125 C 68.484375 -27.617188 67.597656 -23.347656 65.828125 -19.390625 C 64.054688 -15.429688 61.679688 -11.960938 58.703125 -8.984375 C 55.734375 -6.015625 52.269531 -3.671875 48.3125 -1.953125 C 44.351562 -0.234375 40.132812 0.625 35.65625 0.625 C 31.0625 0.625 26.785156 -0.234375 22.828125 -1.953125 C 18.867188 -3.671875 15.398438 -6.015625 12.421875 -8.984375 C 9.453125 -11.960938 7.109375 -15.429688 5.390625 -19.390625 C 3.671875 -23.347656 2.8125 -27.617188 2.8125 -32.203125 C 2.8125 -36.691406 3.671875 -40.96875 5.390625 -45.03125 C 7.109375 -49.09375 9.453125 -52.609375 12.421875 -55.578125 C 15.398438 -58.554688 18.867188 -60.929688 22.828125 -62.703125 C 26.785156 -64.472656 31.0625 -65.359375 35.65625 -65.359375 C 40.132812 -65.359375 44.351562 -64.472656 48.3125 -62.703125 C 52.269531 -60.929688 55.734375 -58.554688 58.703125 -55.578125 C 61.679688 -52.609375 64.054688 -49.09375 65.828125 -45.03125 C 67.597656 -40.96875 68.484375 -36.691406 68.484375 -32.203125 Z M 68.484375 -32.203125 "/></g></g><g style="fill:#ffffff;fill-opacity:1;"><g transform="translate(884.5849, 269.17463)"><path style="stroke:none" d="M 89.59375 -220.15625 L 78.640625 -7.1875 L 12.671875 -3.75 L 6.40625 -215.765625 Z M 89.59375 -220.15625 "/></g></g><g style="fill:#ffffff;fill-opacity:1;"><g transform="translate(978.81919, 269.17463)"><path style="stroke:none" d="M 202.015625 -79.109375 C 202.015625 -67.335938 201.882812 -55.691406 201.625 -44.171875 C 201.363281 -32.648438 200.972656 -21.050781 200.453125 -9.375 L 110.390625 -10.9375 C 113.515625 -29.394531 116.222656 -47.820312 118.515625 -66.21875 C 120.804688 -84.613281 121.953125 -103.191406 121.953125 -121.953125 C 121.953125 -123.304688 121.898438 -125.492188 121.796875 -128.515625 C 121.691406 -131.546875 121.484375 -134.960938 121.171875 -138.765625 C 120.859375 -142.566406 120.414062 -146.472656 119.84375 -150.484375 C 119.269531 -154.503906 118.488281 -158.179688 117.5 -161.515625 C 116.507812 -164.847656 115.3125 -167.582031 113.90625 -169.71875 C 112.5 -171.863281 110.804688 -172.9375 108.828125 -172.9375 C 105.285156 -172.9375 102.285156 -171.890625 99.828125 -169.796875 C 97.378906 -167.710938 95.347656 -165.03125 93.734375 -161.75 C 92.117188 -158.46875 90.84375 -154.789062 89.90625 -150.71875 C 88.96875 -146.65625 88.265625 -142.59375 87.796875 -138.53125 C 87.328125 -134.46875 87.015625 -130.632812 86.859375 -127.03125 C 86.703125 -123.4375 86.625 -120.492188 86.625 -118.203125 C 86.101562 -99.753906 85.6875 -81.4375 85.375 -63.25 C 85.0625 -45.0625 84.644531 -26.6875 84.125 -8.125 L 4.375 -4.6875 C 6.457031 -41.488281 8.460938 -78.078125 10.390625 -114.453125 C 12.328125 -150.828125 13.867188 -187.414062 15.015625 -224.21875 L 88.8125 -227.96875 L 88.1875 -202.953125 C 91.101562 -206.492188 94.253906 -209.828125 97.640625 -212.953125 C 101.023438 -216.085938 104.644531 -218.773438 108.5 -221.015625 C 112.363281 -223.253906 116.457031 -225.023438 120.78125 -226.328125 C 125.113281 -227.628906 129.675781 -228.28125 134.46875 -228.28125 C 143.320312 -228.28125 151.082031 -226.820312 157.75 -223.90625 C 164.425781 -220.988281 170.160156 -217.023438 174.953125 -212.015625 C 179.753906 -207.015625 183.769531 -201.097656 187 -194.265625 C 190.226562 -187.441406 192.832031 -180.171875 194.8125 -172.453125 C 196.800781 -164.742188 198.316406 -156.691406 199.359375 -148.296875 C 200.398438 -139.910156 201.101562 -131.648438 201.46875 -123.515625 C 201.832031 -115.390625 202.015625 -107.519531 202.015625 -99.90625 C 202.015625 -92.300781 202.015625 -85.367188 202.015625 -79.109375 Z M 202.015625 -79.109375 "/></g></g></g></svg>